{"title":"Mrugashira (2017) HDRip x264 HinDi Dubbed AAC.MP4","magnet":"magnet:?xt=urn:btih:9c768914982ab334cf9a7d579767604e96c4f08f&dn=Mrugashira+%282017%29+HDRip+x264+HinDi+Dubbed+AAC.MP4&tr=udp%3A%2F%2Ftracker.leechers-paradise.org%3A6969&tr=udp%3A%2F%2Fzer0day.ch%3A1337&tr=udp%3A%2F%2Fopen.demonii.com%3A1337&tr=udp%3A%2F%2Ftracker.coppersurfer.tk%3A6969&tr=udp%3A%2F%2Fexodus.desync.com%3A6969","uploader":"Munish83","categoryP":"video","categoryS":"hd___movies","size":"669371506","seeders":"114","leechers":"141","description":"Mrugashira (2017) HDRip x264 HinDi Dubbed AAC\r\n\r\nID : 1\r\nFormat : AVC\r\nFormat/Info : Advanced Video Codec\r\nFormat profile : <a href=\"/cdn-cgi/l/email-protection\" class=\"__cf_email__\" data-cfemail=\"3e735f57507e720d\">[email&#xA0;protected]</a>\r\nFormat settings, CABAC : Yes\r\nFormat settings, ReFrames : 3 frames\r\nCodec ID : avc1\r\nCodec ID/Info : Advanced Video Coding\r\nDuration : 1h 42mn\r\nBit rate : 745 Kbps\r\nWidth : 854 pixels\r\nHeight : 480 pixels\r\nDisplay aspect ratio : 16:9\r\nFrame rate mode : Constant\r\nFrame rate : 25.000 fps\r\nColor space : YUV\r\nChroma subsampling : 4:2:0\r\nBit depth : 8 bits\r\nScan type : Progressive\r\nBits/(Pixel*Frame) : 0.073\r\nStream size : 544 MiB (85%)\r\nEncoded date : UTC 2017-11-07 08:54:32\r\nTagged date : UTC 2017-11-07 08:54:32\r\nColor range : Limited\r\nColor primaries : BT.709\r\nTransfer characteristics : BT.709\r\nMatrix coefficients : BT.709\r\n\r\nAudio\r\nID : 2\r\nFormat : AAC\r\nFormat/Info : Advanced Audio Codec\r\nFormat profile : LC\r\nCodec ID : 40\r\nDuration : 1h 42mn\r\nBit rate mode : Variable\r\nBit rate : 126 Kbps\r\nChannel(s) : 2 channels\r\nChannel positions : Front: L R\r\nSampling rate : 44.1 KHz\r\nCompression mode : Lossy\r\nStream size : 91.7 MiB (14%)\r\nEncoded date : UTC 2017-11-07 08:26:21\r\nTagged date : UTC 2017-11-07 08:26:21","last_updated":"2017-12-08T12:09:17.356Z","parsed":{"xt":"urn:btih:9c768914982ab334cf9a7d579767604e96c4f08f","dn":"Mrugashira (2017) HDRip x264 HinDi Dubbed AAC.MP4","tr":["udp://exodus.desync.com:6969","udp://open.demonii.com:1337","udp://tracker.coppersurfer.tk:6969","udp://tracker.leechers-paradise.org:6969","udp://zer0day.ch:1337"],"infoHash":"9c768914982ab334cf9a7d579767604e96c4f08f","infoHashBuffer":{"type":"Buffer","data":[156,118,137,20,152,42,179,52,207,154,125,87,151,103,96,78,150,196,240,143]},"name":"Mrugashira (2017) HDRip x264 HinDi Dubbed AAC.MP4","announce":["udp://exodus.desync.com:6969","udp://open.demonii.com:1337","udp://tracker.coppersurfer.tk:6969","udp://tracker.leechers-paradise.org:6969","udp://zer0day.ch:1337"],"urlList":[]}}